<svg width="128" height="130" viewBox="0 0 128 130" fill="none" xmlns="http://www.w3.org/2000/svg">
<path d="M0 0L42.9084 24.5191M0 0L62.5237 12.2595M0 0L8.58168 48.4252M42.9084 24.5191L62.5237 12.2595M42.9084 24.5191L8.58168 48.4252M42.9084 24.5191L53.942 82.1389M62.5237 12.2595L81.526 24.5191M62.5237 12.2595L123.821 0M81.526 24.5191L123.821 0M81.526 24.5191L114.627 48.4252M81.526 24.5191L71.7183 82.1389M123.821 0L114.627 48.4252M8.58168 48.4252L0 56.3939M114.627 48.4252L126.273 56.3939M126.273 56.3939L62.5237 128.112M126.273 56.3939L95.6244 61.2977L71.7183 82.1389M62.5237 128.112L0 56.3939M62.5237 128.112L53.942 82.1389M62.5237 128.112L71.7183 82.1389M0 56.3939L31.8748 61.2977L53.942 82.1389" stroke="#FFA500" stroke-width="1.22595"/>
</svg>
